<svg width="100" height="63" viewBox="0 0 100 63" fill="none" xmlns="http://www.w3.org/2000/svg">
<rect width="100" height="62.3853" rx="3.66972" fill="url(#paint0_radial_520_839)"/>
<path d="M18.814 26.4377L17.3676 22.8785L15.9294 26.4377M50.678 25.0204C50.3876 25.1984 50.0441 25.2043 49.6326 25.2043H47.0654V23.2213H49.6676C50.0358 23.2213 50.4201 23.238 50.6697 23.3823C50.9438 23.5124 51.1134 23.7892 51.1134 24.1716C51.1134 24.5618 50.9521 24.8758 50.678 25.0204ZM68.9921 26.4377L67.5297 22.8785L66.0753 26.4377H68.9921ZM34.8534 30.2901H32.687L32.679 23.2977L29.6148 30.2901H27.7593L24.687 23.2916V30.2901H20.3889L19.5769 28.2987H15.1769L14.3566 30.2901H12.0614L15.8457 21.3621H18.9854L22.5796 29.8151V21.3621H26.0286L28.7942 27.4187L31.3348 21.3621H34.8532L34.8534 30.2901ZM43.4878 30.2901H36.4284V21.3621H43.4878V23.2213H38.5417V24.8305H43.3692V26.6606H38.5417V28.4436H43.4878V30.2901ZM53.4414 23.7666C53.4414 25.19 52.5006 25.9255 51.9524 26.1463C52.4148 26.324 52.8097 26.638 52.9977 26.8981C53.2961 27.3422 53.3476 27.7389 53.3476 28.5362V30.2901H51.2161L51.2081 29.1642C51.2081 28.627 51.259 27.8544 50.8745 27.4249C50.5657 27.1109 50.095 27.0427 49.3342 27.0427H47.0657V30.2901H44.9526V21.3621H49.8132C50.8932 21.3621 51.6889 21.3909 52.3721 21.7897C53.0406 22.1885 53.4414 22.7707 53.4414 23.7666ZM56.8233 30.2901H54.667V21.3621H56.8233V30.2901ZM81.8388 30.2901H78.8441L74.8385 23.5891V30.2901H70.5348L69.7124 28.2987H65.3225L64.5246 30.2901H62.0518C61.0246 30.2901 59.7241 30.0607 58.9876 29.3026C58.2449 28.5446 57.8585 27.5178 57.8585 25.8942C57.8585 24.5701 58.0894 23.3597 58.9977 22.4032C59.6809 21.6906 60.7508 21.3621 62.207 21.3621H64.2529V23.2751H62.25C61.4788 23.2751 61.0433 23.3909 60.6238 23.804C60.2636 24.1799 60.0164 24.8906 60.0164 25.8264C60.0164 26.7829 60.2046 27.4725 60.5974 27.923C60.9228 28.2764 61.514 28.3835 62.0702 28.3835H63.0193L65.9977 21.3624H69.1641L72.742 29.807V21.3624H75.9596L79.6742 27.5802V21.3624H81.8388V30.2901ZM12.0369 32.0437H15.6476L16.4617 30.0607H18.2844L19.0964 32.0437H26.2006V30.5276L26.8348 32.0502H30.5228L31.1569 30.505V32.0437H48.8124L48.8041 28.7885H49.1457C49.3849 28.7969 49.4548 28.8192 49.4548 29.2181V32.0437H58.5862V31.2859C59.3228 31.6845 60.4684 32.0437 61.9758 32.0437H65.8174L66.6396 30.0607H68.4622L69.2662 32.0437H76.6692V30.16L77.7902 32.0437H83.7225V19.5918H77.8516V21.0624L77.0294 19.5918H71.0052V21.0624L70.2502 19.5918H62.1129C60.7508 19.5918 59.5534 19.7838 58.5862 20.3189V19.5918H52.9708V20.3189C52.3553 19.7674 51.5166 19.5918 50.5841 19.5918H30.0686L28.6921 22.8079L27.2785 19.5918H20.8166V21.0624L20.1068 19.5918H14.5958L12.0366 25.5121L12.0369 32.0437Z" fill="#075EE5"/>
<path d="M87.2224 38.629H83.3709C82.9864 38.629 82.7309 38.6436 82.5158 38.7903C82.2928 38.9349 82.207 39.1496 82.207 39.4328C82.207 39.7697 82.3952 39.9989 82.6691 40.098C82.892 40.1764 83.1315 40.1992 83.4835 40.1992L84.6288 40.2302C85.7846 40.259 86.556 40.4596 87.0264 40.9489C87.112 41.0171 87.1635 41.0935 87.2224 41.17M87.2224 44.5165C86.7091 45.2745 85.7088 45.6588 84.3547 45.6588H80.2736V43.7439H84.3382C84.7414 43.7439 85.0235 43.6903 85.1934 43.5228C85.3406 43.3847 85.4432 43.184 85.4432 42.9403C85.4432 42.6802 85.3406 42.4737 85.1851 42.3498C85.0318 42.2135 84.8086 42.1516 84.4406 42.1516C82.4563 42.0835 79.9808 42.2135 79.9808 39.3876C79.9808 38.0923 80.7952 36.7289 83.0128 36.7289H87.2222V34.9521H83.3112C82.131 34.9521 81.2736 35.2376 80.6664 35.6814V34.9521H74.8816C73.9566 34.9521 72.8707 35.1837 72.3571 35.6814V34.9521H62.0269V35.6814C61.2048 35.0825 59.8176 34.9521 59.1773 34.9521H52.3635V35.6814C51.7131 35.0453 50.2667 34.9521 49.3851 34.9521H41.7592L40.0141 36.8593L38.3797 34.9521H26.9883V47.4127H38.1653L39.9635 45.4754L41.6573 47.4127L48.5469 47.4189V44.4877H49.2243C50.1384 44.5019 51.2165 44.4648 52.1677 44.0495V47.4124H57.8504V44.1648H58.1245C58.4744 44.1648 58.5088 44.1793 58.5088 44.5324V47.4121H75.7717C76.8677 47.4121 78.0133 47.1288 78.6477 46.6148V47.4121H84.1235C85.263 47.4121 86.3758 47.2508 87.2224 46.8377V44.5165ZM78.7928 40.9489C79.2043 41.379 79.4248 41.9219 79.4248 42.841C79.4248 44.7621 78.2363 45.6588 76.1051 45.6588H71.9891V43.7439H76.0886C76.4894 43.7439 76.7736 43.6903 76.9518 43.5228C77.0971 43.3847 77.2014 43.184 77.2014 42.9403C77.2014 42.6802 77.0886 42.4737 76.9435 42.3498C76.7819 42.2135 76.559 42.1516 76.191 42.1516C74.2147 42.0835 71.7397 42.2135 71.7397 39.3876C71.7397 38.0923 72.5456 36.7289 74.7611 36.7289H78.9976V38.6296H75.1211C74.7368 38.6296 74.4869 38.6441 74.2744 38.7909C74.0429 38.9355 73.9571 39.1501 73.9571 39.4334C73.9571 39.7703 74.1536 39.9994 74.4195 40.0985C74.6424 40.1769 74.8819 40.1998 75.2419 40.1998L76.3795 40.2307C77.5267 40.259 78.3142 40.4594 78.7928 40.9489ZM59.724 40.3974C59.4413 40.5668 59.0918 40.5814 58.6805 40.5814H56.1133V38.5757H58.7155C59.0917 38.5757 59.4683 38.5838 59.724 38.737C59.9979 38.8816 60.1616 39.1582 60.1616 39.5403C60.1616 39.9224 59.9979 40.2302 59.724 40.3974ZM61.0003 41.5088C61.4707 41.6841 61.8552 41.9984 62.0355 42.2585C62.3339 42.6945 62.3771 43.1014 62.3856 43.8885V45.6588H60.264V44.5415C60.264 44.0043 60.3152 43.2088 59.9224 42.7936C59.6136 42.4737 59.143 42.3972 58.372 42.3972H56.1136V45.6588H53.9901V36.7286H58.8691C59.9389 36.7286 60.7182 36.7763 61.4118 37.1501C62.0787 37.557 62.4981 38.1144 62.4981 39.1331C62.4979 40.5585 61.5566 41.2858 61.0003 41.5088ZM63.6699 36.7286H70.7229V38.5754H65.7744V40.199H70.6021V42.021H65.7744V43.7977L70.7229 43.8058V45.6588H63.6699V36.7286ZM49.412 40.8498H46.6811V38.5757H49.4365C50.1995 38.5757 50.7291 38.8897 50.7291 39.6706C50.7291 40.4429 50.224 40.8498 49.412 40.8498ZM44.5763 44.8466L41.3317 41.2091L44.5763 37.687V44.8466ZM36.1973 43.7977H31.0016V42.021H35.6411V40.199H31.0016V38.5754H36.2997L38.6112 41.1778L36.1973 43.7977ZM52.9979 39.6706C52.9979 42.1513 51.1651 42.6635 49.3179 42.6635H46.6811V45.6588H42.5736L39.9715 42.7025L37.2672 45.6588H28.8965V36.7286H37.396L39.996 39.6558L42.684 36.7286H49.4365C51.1136 36.7286 52.9979 37.1975 52.9979 39.6706Z" fill="#075EE5"/>
<defs>
<radialGradient id="paint0_radial_520_839" cx="0" cy="0" r="1" gradientUnits="userSpaceOnUse" gradientTransform="rotate(31.3231) scale(117.062 127.698)">
<stop stop-color="#9CC2FC"/>
<stop offset="0.588023" stop-color="white"/>
<stop offset="1" stop-color="#FFDAC2"/>
</radialGradient>
</defs>
</svg>
