<svg width="71" height="20" viewBox="0 0 71 20" fill="none" xmlns="http://www.w3.org/2000/svg">
<g id="Clutch.co logo" clip-path="url(#clip0_367_49)">
<g id="Group">
<path id="Vector" d="M18.6445 0H21.8445V20H18.6445V0ZM33.0445 13.62C33.0445 16.6808 30.4709 16.9248 29.7053 16.9248C27.7925 16.9248 27.4445 15.1344 27.4445 14.0544V6.4H24.2445V14.0384C24.2445 15.9344 24.8397 17.4992 25.8829 18.5424C26.8045 19.4648 28.1853 19.9688 29.6813 19.9688C30.7421 19.9688 32.2445 19.6384 33.0445 18.908V20H36.2445V6.4H33.0445V13.62ZM42.6445 1.6H39.4445V6.4H37.0445V9.6H39.4445V20H42.6445V9.6H45.0445V6.4H42.6445V1.6ZM55.1221 15.9336C54.4253 16.56 53.5053 16.9072 52.4957 16.9072C50.2701 16.9072 48.6357 15.2728 48.6357 13.0288C48.6357 10.7848 50.2181 9.2192 52.4957 9.2192C53.4877 9.2192 54.4253 9.5496 55.1397 10.176L55.6253 10.5936L57.7829 8.4368L57.2429 7.9496C55.9733 6.8032 54.2877 6.16 52.4949 6.16C48.4949 6.16 45.5901 9.0464 45.5901 13.012C45.5901 16.9608 48.5645 19.9504 52.4949 19.9504C54.3213 19.9504 56.0245 19.3072 57.2781 18.1424L57.7997 17.6552L55.6085 15.5L55.1221 15.9336ZM69.2045 7.5856C68.2829 6.664 67.2029 6.16 65.7069 6.16C64.6461 6.16 63.4445 6.4904 62.6445 7.22V0H59.4445V20H62.6445V12.508C62.6445 9.4472 64.8189 9.204 65.5845 9.204C67.4973 9.204 67.4445 10.9952 67.4445 12.0736V20H70.6445V12.0904C70.6445 10.1944 70.2485 8.6296 69.2045 7.5856Z" fill="#344054"/>
</g>
<path id="Vector_2" d="M52.3907 10.7504C53.0044 10.7504 53.5928 10.9941 54.0267 11.428C54.4606 11.8619 54.7043 12.4504 54.7043 13.064C54.7043 13.6776 54.4606 14.266 54.0267 14.6999C53.5928 15.1338 53.0044 15.3776 52.3907 15.3776C51.7771 15.3776 51.1887 15.1338 50.7548 14.6999C50.3209 14.266 50.0771 13.6776 50.0771 13.064C50.0771 12.4504 50.3209 11.8619 50.7548 11.428C51.1887 10.9941 51.7771 10.7504 52.3907 10.7504Z" fill="#FF3D2E"/>
<path id="Vector_3" d="M14.1643 14.9769C12.9475 16.2289 11.2947 16.9073 9.55547 16.9073C5.99067 16.9073 3.39867 14.1073 3.39867 10.2641C3.39867 6.40326 5.99067 3.60326 9.55547 3.60326C11.2779 3.60326 12.9123 4.28086 14.1475 5.51606L14.6339 6.00326L16.7731 3.86406L16.3035 3.37686C14.5299 1.55046 12.1299 0.560059 9.55547 0.560059C4.30347 0.560059 0.355469 4.73366 0.355469 10.2809C0.355469 15.8113 4.32107 19.9681 9.55547 19.9681C12.1475 19.9681 14.5475 18.9601 16.3211 17.1337L16.7907 16.6465L14.6691 14.4729L14.1643 14.9769Z" fill="#344054"/>
</g>
<defs>
<clipPath id="clip0_367_49">
<rect width="70.3235" height="20" fill="white" transform="translate(0.338379)"/>
</clipPath>
</defs>
</svg>
