<svg width="100" height="63" viewBox="0 0 100 63" fill="none" xmlns="http://www.w3.org/2000/svg">
<rect width="100" height="62.3853" rx="3.66972" fill="url(#paint0_radial_520_844)"/>
<g clip-path="url(#clip0_520_844)">
<path d="M34.0624 50.5519V47.9878C34.0624 47.0069 33.462 46.3647 32.4311 46.3647C31.9157 46.3647 31.3553 46.5339 30.97 47.0916C30.6697 46.6236 30.2394 46.3647 29.5939 46.3647C29.1635 46.3647 28.7332 46.4941 28.3929 46.9621V46.4493H27.4922V50.5519H28.3929V48.2865C28.3929 47.5596 28.7782 47.216 29.3787 47.216C29.9792 47.216 30.2794 47.5994 30.2794 48.2865V50.5519H31.1801V48.2865C31.1801 47.5596 31.6105 47.216 32.1659 47.216C32.7664 47.216 33.0666 47.5994 33.0666 48.2865V50.5519H34.0624ZM47.4231 46.4493H45.962V45.2095H45.0612V46.4493H44.2456V47.2609H45.0612V49.1429C45.0612 50.0839 45.4466 50.6366 46.4774 50.6366C46.8627 50.6366 47.293 50.5071 47.5933 50.3378L47.3331 49.5661C47.0729 49.7354 46.7726 49.7802 46.5574 49.7802C46.1271 49.7802 45.957 49.5213 45.957 49.0981V47.2609H47.4181V46.4493H47.4231ZM55.0693 46.3597C54.5538 46.3597 54.2086 46.6186 53.9934 46.9571V46.4443H53.0927V50.5469H53.9934V48.2367C53.9934 47.5546 54.2936 47.1663 54.8541 47.1663C55.0242 47.1663 55.2394 47.2111 55.4145 47.2509L55.6747 46.3945C55.4946 46.3597 55.2394 46.3597 55.0693 46.3597ZM43.515 46.7879C43.0847 46.4891 42.4842 46.3597 41.8387 46.3597C40.8078 46.3597 40.1223 46.8725 40.1223 47.6841C40.1223 48.3662 40.6377 48.7545 41.5384 48.879L41.9688 48.9238C42.4391 49.0085 42.6994 49.1379 42.6994 49.352C42.6994 49.6507 42.3541 49.8648 41.7536 49.8648C41.1531 49.8648 40.6777 49.6507 40.3775 49.4366L39.9472 50.1188C40.4175 50.4623 41.063 50.6316 41.7086 50.6316C42.9095 50.6316 43.6001 50.0739 43.6001 49.3072C43.6001 48.5803 43.0396 48.1969 42.1839 48.0674L41.7536 48.0226C41.3683 47.9778 41.068 47.8932 41.068 47.6393C41.068 47.3405 41.3683 47.1712 41.8437 47.1712C42.3591 47.1712 42.8745 47.3853 43.1347 47.5148L43.515 46.7879ZM67.4792 46.3597C66.9638 46.3597 66.6185 46.6186 66.4033 46.9571V46.4443H65.5026V50.5469H66.4033V48.2367C66.4033 47.5546 66.7036 47.1663 67.264 47.1663C67.4341 47.1663 67.6493 47.2111 67.8245 47.2509L68.0847 46.4045C67.9095 46.3597 67.6543 46.3597 67.4792 46.3597ZM55.97 48.5006C55.97 49.7404 56.8307 50.6366 58.1617 50.6366C58.7622 50.6366 59.1926 50.5071 59.6229 50.1685L59.1925 49.4416C58.8473 49.7005 58.507 49.825 58.1167 49.825C57.3861 49.825 56.8707 49.3122 56.8707 48.5006C56.8707 47.7289 57.3861 47.2161 58.1167 47.1762C58.502 47.1762 58.8473 47.3057 59.1925 47.5596L59.6229 46.8327C59.1926 46.4891 58.7622 46.3647 58.1617 46.3647C56.8307 46.3597 55.97 47.2609 55.97 48.5006ZM64.3016 48.5006V46.4493H63.4009V46.9621C63.1007 46.5788 62.6703 46.3647 62.1099 46.3647C60.949 46.3647 60.0482 47.2609 60.0482 48.5006C60.0482 49.7404 60.949 50.6366 62.1099 50.6366C62.7104 50.6366 63.1407 50.4225 63.4009 50.0391V50.5519H64.3016V48.5006ZM60.994 48.5006C60.994 47.7737 61.4644 47.1762 62.24 47.1762C62.9706 47.1762 63.486 47.7339 63.486 48.5006C63.486 49.2275 62.9706 49.825 62.24 49.825C61.4694 49.7802 60.994 49.2226 60.994 48.5006ZM50.2154 46.3597C49.0144 46.3597 48.1537 47.2161 48.1537 48.4956C48.1537 49.7802 49.0144 50.6316 50.2604 50.6316C50.8609 50.6316 51.4614 50.4623 51.9367 50.0739L51.5064 49.4317C51.1611 49.6906 50.7308 49.8599 50.3054 49.8599C49.745 49.8599 49.1895 49.601 49.0594 48.879H52.1069C52.1069 48.7496 52.1069 48.6649 52.1069 48.5355C52.1469 47.216 51.3713 46.3597 50.2154 46.3597ZM50.2154 47.1314C50.7758 47.1314 51.1611 47.475 51.2462 48.1123H49.0995C49.1845 47.5596 49.5699 47.1314 50.2154 47.1314ZM72.5933 48.5006V44.8262H71.6925V46.9621C71.3923 46.5788 70.962 46.3647 70.4015 46.3647C69.2406 46.3647 68.3399 47.2609 68.3399 48.5006C68.3399 49.7404 69.2406 50.6366 70.4015 50.6366C71.002 50.6366 71.4323 50.4225 71.6925 50.0391V50.5519H72.5933V48.5006ZM69.2856 48.5006C69.2856 47.7737 69.756 47.1762 70.5316 47.1762C71.2622 47.1762 71.7776 47.7339 71.7776 48.5006C71.7776 49.2275 71.2622 49.825 70.5316 49.825C69.756 49.7802 69.2856 49.2226 69.2856 48.5006ZM39.1315 48.5006V46.4493H38.2308V46.9621C37.9305 46.5788 37.5002 46.3647 36.9397 46.3647C35.7788 46.3647 34.8781 47.2609 34.8781 48.5006C34.8781 49.7404 35.7788 50.6366 36.9397 50.6366C37.5402 50.6366 37.9706 50.4225 38.2308 50.0391V50.5519H39.1315V48.5006ZM35.7838 48.5006C35.7838 47.7737 36.2542 47.1762 37.0298 47.1762C37.7604 47.1762 38.2758 47.7339 38.2758 48.5006C38.2758 49.2275 37.7604 49.825 37.0298 49.825C36.2542 49.7802 35.7838 49.2226 35.7838 48.5006Z" fill="black"/>
<path d="M56.7452 15.291H43.2144V39.4786H56.7452V15.291Z" fill="#FF5A00"/>
<path d="M44.1153 27.3848C44.1153 22.4707 46.4372 18.1091 50 15.2911C47.3779 13.2397 44.0703 12 40.4624 12C31.9155 12 25 18.8809 25 27.3848C25 35.8888 31.9155 42.7697 40.4624 42.7697C44.0703 42.7697 47.3779 41.5299 50 39.4786C46.4321 36.7004 44.1153 32.299 44.1153 27.3848Z" fill="#EB001B"/>
<path d="M75 27.3848C75 35.8888 68.0845 42.7697 59.5376 42.7697C55.9297 42.7697 52.6221 41.5299 50 39.4786C53.6079 36.6556 55.8847 32.299 55.8847 27.3848C55.8847 22.4707 53.5629 18.1091 50 15.2911C52.6171 13.2397 55.9247 12 59.5326 12C68.0845 12 75 18.9257 75 27.3848Z" fill="#F79E1B"/>
</g>
<defs>
<radialGradient id="paint0_radial_520_844" cx="0" cy="0" r="1" gradientUnits="userSpaceOnUse" gradientTransform="rotate(31.3231) scale(117.062 127.698)">
<stop stop-color="#9CC2FC"/>
<stop offset="0.588023" stop-color="white"/>
<stop offset="1" stop-color="#FFDAC2"/>
</radialGradient>
<clipPath id="clip0_520_844">
<rect width="50" height="38.6364" fill="white" transform="translate(25 12)"/>
</clipPath>
</defs>
</svg>
