<svg width="100" height="63" viewBox="0 0 100 63" fill="none" xmlns="http://www.w3.org/2000/svg">
<rect width="100" height="62.3853" rx="3.66972" fill="url(#paint0_radial_520_859)"/>
<g clip-path="url(#clip0_520_859)">
<path d="M19.6 21.001H13.3776C12.9517 21.001 12.5896 21.303 12.5232 21.7132L10.0065 37.2811C9.95648 37.5882 10.2004 37.8652 10.5197 37.8652H13.4904C13.9162 37.8652 14.2782 37.5635 14.3447 37.1524L15.0234 32.9536C15.089 32.5425 15.452 32.2406 15.8769 32.2406H17.8467C21.9456 32.2406 24.3111 30.3054 24.929 26.4704C25.2074 24.7926 24.9408 23.4744 24.1355 22.5511C23.2512 21.5373 21.6826 21.001 19.6 21.001ZM20.3179 26.687C19.9776 28.8655 18.2716 28.8655 16.622 28.8655H15.6831L16.3418 24.7971C16.381 24.5512 16.5993 24.3701 16.8541 24.3701H17.2844C18.408 24.3701 19.4681 24.3701 20.0158 24.995C20.3424 25.3679 20.4425 25.9218 20.3179 26.687Z" fill="#283B82"/>
<path d="M38.1999 26.6166H35.2202C34.9664 26.6166 34.7472 26.7977 34.7079 27.0437L34.5761 27.8568L34.3677 27.562C33.7226 26.6486 32.284 26.3432 30.8483 26.3432C27.5556 26.3432 24.7433 28.7765 24.1956 32.1898C23.9108 33.8924 24.3157 35.5205 25.3056 36.6558C26.2136 37.6998 27.5128 38.1348 29.0588 38.1348C31.7119 38.1348 33.1831 36.4704 33.1831 36.4704L33.0502 37.2782C33.0001 37.5871 33.244 37.8641 33.5616 37.8641H36.2455C36.6723 37.8641 37.0326 37.5622 37.1 37.1513L38.7103 27.2007C38.7614 26.8945 38.5184 26.6166 38.1999 26.6166ZM34.0465 32.275C33.7591 33.9359 32.4078 35.051 30.6847 35.051C29.8194 35.051 29.1279 34.7801 28.6838 34.267C28.2435 33.7575 28.076 33.0322 28.2162 32.2243C28.4846 30.5776 29.8585 29.4263 31.5553 29.4263C32.4016 29.4263 33.0893 29.7006 33.5425 30.2181C33.9965 30.7409 34.1765 31.4707 34.0465 32.275Z" fill="#283B82"/>
<path d="M54.0694 26.617H51.0752C50.7895 26.617 50.5211 26.7555 50.3591 26.9872L46.2293 32.9225L44.4788 27.2189C44.3687 26.862 44.0312 26.617 43.6491 26.617H40.7066C40.349 26.617 40.1007 26.9578 40.2144 27.2863L43.5126 36.7299L40.4118 41.0008C40.1679 41.3371 40.4135 41.7998 40.835 41.7998H43.8256C44.1094 41.7998 44.3752 41.6648 44.5362 41.4375L54.4952 27.4115C54.7337 27.0759 54.489 26.617 54.0694 26.617Z" fill="#283B82"/>
<path d="M63.9833 21.001H57.7599C57.3351 21.001 56.9729 21.303 56.9064 21.7132L54.3898 37.2811C54.3399 37.5882 54.5836 37.8652 54.9012 37.8652H58.0948C58.3913 37.8652 58.6453 37.654 58.6916 37.3664L59.4058 32.9536C59.4713 32.5425 59.8344 32.2406 60.2593 32.2406H62.2283C66.3279 32.2406 68.6927 30.3054 69.3114 26.4704C69.5908 24.7926 69.3224 23.4744 68.5171 22.5511C67.6336 21.5373 66.0659 21.001 63.9833 21.001ZM64.7012 26.687C64.3618 28.8655 62.656 28.8655 61.0053 28.8655H60.0674L60.727 24.7971C60.7662 24.5512 60.9826 24.3701 61.2383 24.3701H61.6686C62.7915 24.3701 63.8523 24.3701 64.4 24.995C64.7267 25.3679 64.8258 25.9218 64.7012 26.687Z" fill="#469BDB"/>
<path d="M82.5824 26.6166H79.6045C79.3487 26.6166 79.1312 26.7977 79.093 27.0437L78.9611 27.8568L78.7519 27.562C78.1068 26.6486 76.6692 26.3432 75.2335 26.3432C71.9407 26.3432 69.1294 28.7765 68.5815 32.1898C68.2977 33.8924 68.7007 35.5205 69.6907 36.6558C70.6006 37.6998 71.8979 38.1348 73.4438 38.1348C76.0969 38.1348 77.5681 36.4704 77.5681 36.4704L77.4352 37.2782C77.3853 37.5871 77.629 37.8641 77.9485 37.8641H80.6316C81.0565 37.8641 81.4187 37.5622 81.4851 37.1513L83.0965 27.2007C83.1454 26.8945 82.9017 26.6166 82.5824 26.6166ZM78.4288 32.275C78.1431 33.9359 76.7902 35.051 75.067 35.051C74.2035 35.051 73.5102 34.7801 73.0662 34.267C72.626 33.7575 72.4602 33.0322 72.5986 32.2243C72.8688 30.5776 74.2409 29.4263 75.9378 29.4263C76.7839 29.4263 77.4717 29.7006 77.9248 30.2181C78.3806 30.7409 78.5607 31.4707 78.4288 32.275Z" fill="#469BDB"/>
<path d="M86.0952 21.4282L83.5412 37.2811C83.4912 37.5882 83.735 37.8652 84.0526 37.8652H86.6201C87.0468 37.8652 87.4091 37.5635 87.4745 37.1524L89.9929 21.5854C90.043 21.2781 89.7993 21.0003 89.4817 21.0003H86.6064C86.3526 21.001 86.1343 21.1824 86.0952 21.4282Z" fill="#469BDB"/>
</g>
<defs>
<radialGradient id="paint0_radial_520_859" cx="0" cy="0" r="1" gradientUnits="userSpaceOnUse" gradientTransform="rotate(31.3231) scale(117.062 127.698)">
<stop stop-color="#9CC2FC"/>
<stop offset="0.588023" stop-color="white"/>
<stop offset="1" stop-color="#FFDAC2"/>
</radialGradient>
<clipPath id="clip0_520_859">
<rect width="80" height="20.8" fill="white" transform="translate(10 21)"/>
</clipPath>
</defs>
</svg>
