<svg width="249" height="40" viewBox="0 0 249 40" fill="none" xmlns="http://www.w3.org/2000/svg">
<g clip-path="url(#clip0_358_2895)">
<path fill-rule="evenodd" clip-rule="evenodd" d="M19.0205 33.9046C20.8181 34.0143 22.6194 33.7623 24.3206 33.1631C26.0219 32.564 27.5897 31.6295 28.9338 30.4135C30.2778 29.1975 31.3717 27.7239 32.1524 26.0774C32.9331 24.4309 33.3853 22.6441 33.4829 20.8198C33.6538 18.0541 33.0105 15.2994 31.6349 12.9055C30.2593 10.5116 28.2134 8.58646 25.7571 7.37474C23.3007 6.16303 20.5448 5.71937 17.8394 6.10012C15.134 6.48087 12.6012 7.66885 10.5627 9.51316C8.52426 11.3575 7.07209 13.7749 6.3907 16.4583C5.70931 19.1417 5.82945 21.9701 6.73586 24.5841C7.64226 27.1981 9.29403 29.4798 11.4813 31.1393C13.6687 32.7989 16.2928 33.7614 19.0205 33.9046Z" fill="url(#paint0_radial_358_2895)"/>
<g style="mix-blend-mode:multiply">
<path fill-rule="evenodd" clip-rule="evenodd" d="M23.2496 33.4892C23.6017 33.396 23.95 33.2873 24.2906 33.1708C24.149 31.2294 22.2393 28.8027 22.2393 28.8027C23.2496 30.2044 23.2496 33.4077 23.2496 33.4892Z" fill="#414141"/>
</g>
<g style="mix-blend-mode:multiply">
<path fill-rule="evenodd" clip-rule="evenodd" d="M33.5136 19.6549C31.4699 14.1181 17.8532 11.2837 19.3534 6.01874C19.7361 6.01874 20.0921 6.05368 20.4786 6.05368C23.9298 6.25715 27.1805 7.76556 29.5894 10.2813C31.9982 12.7971 33.3902 16.1374 33.4906 19.6433L33.5136 19.6549Z" fill="#414141"/>
</g>
<g style="mix-blend-mode:multiply">
<path fill-rule="evenodd" clip-rule="evenodd" d="M12.2734 31.6915C12.3538 31.7458 12.4265 31.804 12.5069 31.8545C12.5873 31.905 12.7442 31.9865 12.859 32.0564C14.7031 33.1446 16.7725 33.7802 18.9019 33.9124C23.9536 29.4861 6.36064 25.2422 5.99707 19.2084C5.87863 21.6639 6.39564 24.108 7.49672 26.2979C8.5978 28.4879 10.2446 30.3473 12.2734 31.6915Z" fill="#414141"/>
</g>
<path fill-rule="evenodd" clip-rule="evenodd" d="M17.195 11.1129C12.6714 4.90051 16.2918 2.77277 22.1319 4.12397C23.4866 3.47943 24.0798 2.95914 23.9038 2.52428C20.9225 0.745981 16.2497 0.699388 14.4318 1.87586C12.9814 2.82325 12.6025 5.80519 13.188 7.3777C13.6741 8.85314 15.2278 10.3208 17.1108 11.0547L17.195 11.1129Z" fill="url(#paint1_radial_358_2895)"/>
<path fill-rule="evenodd" clip-rule="evenodd" d="M34.6235 30.4645C34.7536 30.2005 37.9684 23.0096 30.9878 15.4694C35.32 18.8784 38.3511 24.2249 34.6235 30.4645Z" fill="url(#paint2_radial_358_2895)"/>
<path d="M22.1661 28.6901C26.9806 34.5802 23.8079 37.5738 17.0455 35.8732C16.4217 35.7179 15.2277 37.302 14.4546 37.8146C18.1668 39.0299 23.2147 38.9367 25.0173 37.7641C26.4677 36.8167 26.8581 34.6074 26.2802 33.031C25.7597 31.5905 23.938 30.0297 22.323 28.7833L22.1661 28.6901Z" fill="url(#paint3_radial_358_2895)"/>
<path fill-rule="evenodd" clip-rule="evenodd" d="M4.85265 9.53653C-3.50948 25.6926 26.5253 30.0258 15.6029 37.4379C19.0893 38.5561 26.8965 39.4841 25.9359 33.6911C25.6757 31.8545 24.2865 30.383 22.3806 28.9075C17.9068 25.5956 10.5818 22.6718 7.60813 17.2321C5.4688 13.3028 5.46498 9.70349 6.50594 6.56235C9.12747 1.46431 15.4498 -0.294569 20.8038 0.0393471C35.9322 0.881902 43.4715 17.0923 37.2602 29.2259V29.2919L37.1645 29.455L37.1339 29.4861L37.1224 29.5171L37.153 29.5521L37.1224 29.5831L37.088 29.6181C36.2059 31.232 35.1073 32.7138 33.8235 34.0211C34.2699 32.882 34.5397 31.6796 34.6234 30.4567C43.0199 14.2774 12.9813 9.9481 23.9038 2.53207C20.1647 1.34783 16.6323 1.43713 14.8413 2.61749C13.3946 3.56488 13.1689 5.56061 13.7506 7.12923C15.6909 12.6311 27.8265 15.3335 31.8717 22.7612C34.0034 26.6866 34.011 30.2859 32.9854 33.427C31.6703 35.6525 29.7131 37.4145 27.3787 38.4746C24.6311 39.6547 21.6495 40.1667 18.6722 39.9695C15.9608 39.8486 13.3051 39.1484 10.8789 37.9146C8.4526 36.6808 6.3104 34.9412 4.59241 32.8097C-0.271788 26.7953 -3.06172 15.4965 5.59127 6.03818C4.75697 6.94674 4.94832 8.26299 4.85265 9.53265V9.53653Z" fill="url(#paint4_radial_358_2895)"/>
<path fill-rule="evenodd" clip-rule="evenodd" d="M23.9041 2.5321C20.165 1.34787 16.6326 1.43717 14.8416 2.61752C13.3949 3.56491 13.1691 5.56064 13.7509 7.12927C14.3058 8.79885 15.8213 10.1462 17.1952 11.1596C17.1952 11.1596 12.3846 8.44164 13.1845 4.5589C13.356 3.6434 13.8756 2.83311 14.6311 2.30302C16.0739 1.27798 19.3231 1.34787 19.679 1.38281C21.1385 1.51893 22.5632 1.91315 23.8887 2.54764L23.9041 2.5321Z" fill="url(#paint5_linear_358_2895)"/>
<path fill-rule="evenodd" clip-rule="evenodd" d="M17.1952 11.1129C12.6716 4.90052 16.292 2.77278 22.1321 4.12397C22.635 3.50057 23.2333 2.96309 23.904 2.53205C20.165 1.34781 16.6326 1.43712 14.8416 2.61747C13.3949 3.56486 13.1691 5.56059 13.7509 7.12921C14.2369 8.60466 15.4654 9.84713 17.111 11.0624L17.1952 11.1129Z" fill="url(#paint6_radial_358_2895)"/>
<path fill-rule="evenodd" clip-rule="evenodd" d="M22.2392 28.8027C26.7666 35.0151 23.1844 37.2205 17.3443 35.8693C16.8517 36.4803 16.2634 37.005 15.603 37.4224C19.3153 38.6377 22.8323 38.5445 24.6349 37.3719C26.0853 36.4401 26.3379 34.4094 25.76 32.8563C25.2587 31.3964 24.0149 30.1384 22.3961 28.9076L22.2392 28.8027Z" fill="url(#paint7_radial_358_2895)"/>
<path fill-rule="evenodd" clip-rule="evenodd" d="M34.6235 30.4645C34.7536 30.2005 37.9684 23.0096 30.9878 15.4694C34.9947 19.1424 38.0985 23.794 34.6235 30.4645Z" fill="url(#paint8_radial_358_2895)"/>
<path fill-rule="evenodd" clip-rule="evenodd" d="M4.85281 9.5365C4.75713 9.76946 1.5424 16.9603 8.48852 24.5316C4.45097 20.8197 1.41228 16.1605 4.85281 9.5365Z" fill="url(#paint9_radial_358_2895)"/>
<path d="M47.2144 33.2607V27.1066H64.8189C65.0286 27.1184 65.2384 27.0845 65.4341 27.0071C65.6298 26.9297 65.8069 26.8106 65.9534 26.6579C66.0999 26.5052 66.2125 26.3224 66.2835 26.1219C66.3545 25.9213 66.3823 25.7076 66.365 25.4952C66.3777 25.2738 66.3456 25.052 66.2706 24.8437C66.1955 24.6353 66.0792 24.4448 65.9287 24.2838C65.7818 24.1359 65.6064 24.0203 65.4135 23.9441C65.2205 23.868 65.0142 23.8329 64.8074 23.8412H54.4552C53.424 23.8506 52.3997 23.6704 51.4318 23.3092C50.5482 22.9821 49.7358 22.4836 49.0399 21.8416C48.3711 21.2076 47.8416 20.4376 47.4861 19.5818C47.1014 18.6517 46.9099 17.6511 46.9235 16.6426C46.9114 15.6291 47.1029 14.6238 47.4861 13.6878C47.8396 12.8197 48.369 12.0366 49.0399 11.3892C49.7288 10.7378 50.5432 10.2381 51.4318 9.92156C52.4021 9.57131 53.4254 9.39652 54.4552 9.40515H72.3314V15.5399H54.7269C54.5189 15.5209 54.3092 15.5489 54.1131 15.622C53.9171 15.6951 53.7394 15.8114 53.593 15.9626C53.4465 16.1137 53.335 16.296 53.2664 16.4961C53.1977 16.6963 53.1737 16.9094 53.1961 17.1202C53.1782 17.5491 53.3282 17.9678 53.6132 18.285C53.7571 18.4351 53.9308 18.5526 54.1228 18.6296C54.3148 18.7066 54.5207 18.7413 54.7269 18.7315H65.0983C66.1307 18.7271 67.1553 18.914 68.1216 19.2828C69.006 19.6192 69.8182 20.1254 70.5135 20.7738C71.1918 21.4174 71.7279 22.1994 72.0865 23.0685C72.4675 23.9929 72.6589 24.9864 72.649 25.9883C72.6637 27.0146 72.4722 28.0331 72.0865 28.9819C71.7271 29.8608 71.1915 30.6542 70.5135 31.3116C69.8221 31.9559 69.0081 32.4501 68.1216 32.7637C67.1505 33.1086 66.127 33.2769 65.0983 33.2607H47.2144Z" fill="#FF751B"/>
<path d="M77.8423 39.6672V34.3789H79.7559C80.3936 34.4152 81.0265 34.2482 81.5661 33.9013C81.9929 33.5927 82.3503 33.1957 82.6147 32.7365L73.9272 14.9613H80.0505L85.4084 26.7144L90.9117 14.9613H97.0657L87.0349 35.0778C86.6912 35.7926 86.2852 36.4748 85.8218 37.1162C85.4233 37.6671 84.9415 38.1506 84.3943 38.549C83.8497 38.9326 83.2437 39.2177 82.6032 39.3915C81.8533 39.5869 81.0811 39.6796 80.307 39.6672H77.8423Z" fill="#FF751B"/>
<path d="M114.429 33.2607V23.6548C114.429 21.584 113.379 20.5486 111.28 20.5486H105.244V33.2607H99.1631V14.9496H111.436C114.429 14.9496 116.686 15.7081 118.207 17.2249C119.727 18.7418 120.493 20.8967 120.503 23.6897V33.2607H114.429Z" fill="#FF751B"/>
<path d="M130.189 33.2607C127.992 33.2607 126.346 32.6796 125.248 31.5173C124.151 30.3551 123.607 28.7011 123.614 26.5552V9.73517H129.623V14.9497H136.864V20.0167H129.611V26.0776C129.611 27.522 130.323 28.2442 131.747 28.2442H136.672V33.2607H130.189Z" fill="#FF751B"/>
<path d="M145.214 33.2607C143.308 33.2607 141.884 32.7585 140.943 31.7542C140.468 31.2328 140.098 30.6216 139.856 29.9553C139.614 29.2891 139.503 28.581 139.531 27.8714C139.47 26.4236 139.978 25.0104 140.943 23.9421C141.884 22.9403 143.308 22.4395 145.214 22.4395H151.934V25.9999H146.576C145.685 25.9999 145.237 26.4309 145.237 27.2851C145.237 28.1393 145.662 28.5703 146.504 28.5703H153.71V23.2859C153.71 21.2151 152.66 20.1797 150.56 20.1797H140.495V14.9496H150.633C153.649 14.9496 155.905 15.7029 157.403 17.2094C158.901 18.7159 159.648 20.876 159.646 23.6897V33.2607H145.214Z" fill="#FF751B"/>
<path d="M172.183 33.2606C170.864 33.274 169.553 33.0505 168.31 32.6006C167.178 32.1856 166.138 31.5483 165.249 30.7252C164.377 29.9152 163.686 28.9265 163.22 27.8248C162.726 26.6401 162.48 25.3642 162.497 24.078C162.483 22.8045 162.729 21.5419 163.22 20.3699C163.686 19.2682 164.377 18.2795 165.249 17.4695C166.138 16.6464 167.178 16.0092 168.31 15.5942C169.553 15.1442 170.864 14.9208 172.183 14.9341H180.331V20.533H172.149C171.176 20.4901 170.225 20.839 169.504 21.5037C169.165 21.8388 168.9 22.2427 168.725 22.6889C168.55 23.1352 168.47 23.6137 168.49 24.0935C168.47 24.5761 168.551 25.0575 168.725 25.5069C168.9 25.9563 169.165 26.3636 169.504 26.7027C169.859 27.0371 170.275 27.2968 170.729 27.4668C171.183 27.6368 171.665 27.7136 172.149 27.6928H180.331V33.2606H172.183Z" fill="#FF751B"/>
<path d="M189.853 33.2607C187.656 33.2607 186.008 32.6796 184.908 31.5173C183.809 30.3551 183.26 28.6959 183.263 26.5397V9.73517H189.271V14.9497H196.512V20.0167H189.271V26.0776C189.271 27.522 189.983 28.2442 191.407 28.2442H196.328V33.2607H189.853Z" fill="#FF751B"/>
<path d="M202.268 13.1481C201.545 13.1756 200.839 12.9198 200.297 12.4336C200.036 12.182 199.833 11.876 199.701 11.5368C199.569 11.1975 199.511 10.8332 199.531 10.469C199.516 10.1163 199.576 9.76436 199.708 9.43778C199.84 9.11119 200.041 8.8178 200.297 8.57808C200.838 8.09055 201.544 7.83332 202.268 7.85978H203.102C203.82 7.83145 204.521 8.08926 205.054 8.57808C205.308 8.81877 205.508 9.11232 205.64 9.43867C205.772 9.76502 205.833 10.1165 205.819 10.469C205.838 10.833 205.779 11.1968 205.647 11.5358C205.515 11.8747 205.313 12.1809 205.054 12.4336C204.52 12.9214 203.82 13.1779 203.102 13.1481H202.268ZM199.627 33.2607V14.9497H205.67V33.2607H199.627Z" fill="#FF751B"/>
<path d="M218.234 33.2606C216.915 33.274 215.604 33.0505 214.361 32.6006C213.229 32.1856 212.189 31.5483 211.3 30.7252C210.428 29.9162 209.736 28.9273 209.272 27.8248C208.777 26.6401 208.531 25.3642 208.548 24.078C208.534 22.8045 208.78 21.5419 209.272 20.3699C209.736 19.2674 210.428 18.2785 211.3 17.4695C212.189 16.6464 213.229 16.0092 214.361 15.5942C215.604 15.1442 216.915 14.9208 218.234 14.9341H226.378V20.533H218.196C217.224 20.4894 216.275 20.8385 215.556 21.5037C215.216 21.8382 214.95 22.242 214.775 22.6884C214.6 23.1348 214.521 23.6136 214.541 24.0935C214.521 24.5762 214.601 25.0578 214.775 25.5073C214.95 25.9568 215.216 26.364 215.556 26.7027C215.909 27.0374 216.324 27.2973 216.778 27.4673C217.231 27.6373 217.713 27.7139 218.196 27.6928H226.378V33.2606H218.234Z" fill="#FF751B"/>
<path d="M228.766 33.2607V28.2131H241.511C242.358 28.2131 242.78 27.8248 242.777 27.0483C242.775 26.2717 242.353 25.8912 241.511 25.9068H234.415C233.577 25.9226 232.743 25.7831 231.954 25.4952C231.269 25.2341 230.641 24.8383 230.106 24.3304C229.603 23.839 229.212 23.2429 228.958 22.5831C228.692 21.8864 228.562 21.1441 228.575 20.3972C228.563 19.6228 228.71 18.8544 229.008 18.1413C229.288 17.4803 229.709 16.8903 230.24 16.4135C230.779 15.9289 231.405 15.5545 232.085 15.3108C232.829 15.0456 233.614 14.9142 234.404 14.9225H247.687V19.9701H235.502C234.678 19.9701 234.267 20.3493 234.27 21.1077C234.27 21.8842 234.679 22.2453 235.502 22.2453H242.743C244.6 22.2453 246.037 22.763 247.052 23.7984C247.558 24.3131 247.954 24.9271 248.217 25.6028C248.481 26.2785 248.605 27.0016 248.583 27.7278C248.597 28.5151 248.448 29.2967 248.147 30.0225C247.868 30.6839 247.454 31.278 246.933 31.7658C246.403 32.2665 245.774 32.6488 245.089 32.8879C244.338 33.1518 243.549 33.2832 242.754 33.2762L228.766 33.2607Z" fill="#FF751B"/>
</g>
<defs>
<radialGradient id="paint0_radial_358_2895" cx="0" cy="0" r="1" gradientUnits="userSpaceOnUse" gradientTransform="translate(43.2511 13.4637) rotate(45.4138) scale(45.3425 45.3378)">
<stop stop-color="#00A9FB"/>
<stop offset="0.22" stop-color="#0389F2"/>
<stop offset="0.57" stop-color="#075EE5"/>
<stop offset="0.84" stop-color="#0944DE"/>
<stop offset="1" stop-color="#0A3ADB"/>
</radialGradient>
<radialGradient id="paint1_radial_358_2895" cx="0" cy="0" r="1" gradientUnits="userSpaceOnUse" gradientTransform="translate(22.6818 -3.32509) rotate(45.4138) scale(22.918 22.9156)">
<stop stop-color="#FFCA07"/>
<stop offset="0.1" stop-color="#FEC409"/>
<stop offset="0.22" stop-color="#FCB40D"/>
<stop offset="0.36" stop-color="#F89914"/>
<stop offset="0.51" stop-color="#F3731E"/>
<stop offset="0.6" stop-color="#F05B24"/>
<stop offset="0.74" stop-color="#DC4225"/>
<stop offset="0.9" stop-color="#C82A26"/>
<stop offset="1" stop-color="#C12126"/>
</radialGradient>
<radialGradient id="paint2_radial_358_2895" cx="0" cy="0" r="1" gradientUnits="userSpaceOnUse" gradientTransform="translate(27.9534 26.8536) rotate(45.4138) scale(11.3992 11.398)">
<stop stop-color="#FFCA07"/>
<stop offset="0.1" stop-color="#FEC409"/>
<stop offset="0.22" stop-color="#FCB40D"/>
<stop offset="0.36" stop-color="#F89914"/>
<stop offset="0.51" stop-color="#F3731E"/>
<stop offset="0.6" stop-color="#F05B24"/>
<stop offset="0.74" stop-color="#DC4225"/>
<stop offset="0.9" stop-color="#C82A26"/>
<stop offset="1" stop-color="#C12126"/>
</radialGradient>
<radialGradient id="paint3_radial_358_2895" cx="0" cy="0" r="1" gradientUnits="userSpaceOnUse" gradientTransform="translate(20.4975 33.695) scale(5.51479 5.59503)">
<stop stop-color="#FEBC11"/>
<stop offset="0.29" stop-color="#FE9916"/>
<stop offset="0.56" stop-color="#FF7F1A"/>
<stop offset="0.72" stop-color="#FF751B"/>
</radialGradient>
<radialGradient id="paint4_radial_358_2895" cx="0" cy="0" r="1" gradientUnits="userSpaceOnUse" gradientTransform="translate(26.621 13.462) scale(27.8534 28.2586)">
<stop stop-color="#FEBC11"/>
<stop offset="0.29" stop-color="#FE9916"/>
<stop offset="0.56" stop-color="#FF7F1A"/>
<stop offset="0.72" stop-color="#FF751B"/>
</radialGradient>
<linearGradient id="paint5_linear_358_2895" x1="15.1887" y1="1.6471" x2="20.9702" y2="7.34563" gradientUnits="userSpaceOnUse">
<stop stop-color="white"/>
<stop offset="0.12" stop-color="#FFF8F1"/>
<stop offset="0.36" stop-color="#FFE5CB"/>
<stop offset="0.68" stop-color="#FFC78F"/>
<stop offset="1" stop-color="#FFA64C"/>
</linearGradient>
<radialGradient id="paint6_radial_358_2895" cx="0" cy="0" r="1" gradientUnits="userSpaceOnUse" gradientTransform="translate(22.9932 -2.81716) rotate(45.4138) scale(21.8 21.7978)">
<stop stop-color="#FFCA07"/>
<stop offset="0.1" stop-color="#FEC409"/>
<stop offset="0.22" stop-color="#FCB40D"/>
<stop offset="0.36" stop-color="#F89914"/>
<stop offset="0.51" stop-color="#F3731E"/>
<stop offset="0.6" stop-color="#F05B24"/>
<stop offset="0.74" stop-color="#DC4225"/>
<stop offset="0.9" stop-color="#C82A26"/>
<stop offset="1" stop-color="#C12126"/>
</radialGradient>
<radialGradient id="paint7_radial_358_2895" cx="0" cy="0" r="1" gradientUnits="userSpaceOnUse" gradientTransform="translate(11.5624 44.3069) rotate(45.4138) scale(24.0128 24.0103)">
<stop stop-color="#FFCA07"/>
<stop offset="0.1" stop-color="#FEC409"/>
<stop offset="0.22" stop-color="#FCB40D"/>
<stop offset="0.36" stop-color="#F89914"/>
<stop offset="0.51" stop-color="#F3731E"/>
<stop offset="0.6" stop-color="#F05B24"/>
<stop offset="0.74" stop-color="#DC4225"/>
<stop offset="0.9" stop-color="#C82A26"/>
<stop offset="1" stop-color="#C12126"/>
</radialGradient>
<radialGradient id="paint8_radial_358_2895" cx="0" cy="0" r="1" gradientUnits="userSpaceOnUse" gradientTransform="translate(27.9751 26.8316) rotate(45.4138) scale(11.3877 11.3865)">
<stop stop-color="#FFCA07"/>
<stop offset="0.1" stop-color="#FEC409"/>
<stop offset="0.22" stop-color="#FCB40D"/>
<stop offset="0.36" stop-color="#F89914"/>
<stop offset="0.51" stop-color="#F3731E"/>
<stop offset="0.6" stop-color="#F05B24"/>
<stop offset="0.74" stop-color="#DC4225"/>
<stop offset="0.9" stop-color="#C82A26"/>
<stop offset="1" stop-color="#C12126"/>
</radialGradient>
<radialGradient id="paint9_radial_358_2895" cx="0" cy="0" r="1" gradientUnits="userSpaceOnUse" gradientTransform="translate(20.4493 11.0641) rotate(45.4138) scale(19.7299 19.7278)">
<stop stop-color="#FFCA07"/>
<stop offset="0.1" stop-color="#FEC409"/>
<stop offset="0.22" stop-color="#FCB40D"/>
<stop offset="0.36" stop-color="#F89914"/>
<stop offset="0.51" stop-color="#F3731E"/>
<stop offset="0.6" stop-color="#F05B24"/>
<stop offset="0.74" stop-color="#DC4225"/>
<stop offset="0.9" stop-color="#C82A26"/>
<stop offset="1" stop-color="#C12126"/>
</radialGradient>
<clipPath id="clip0_358_2895">
<rect width="248.571" height="40" fill="white"/>
</clipPath>
</defs>
</svg>
