<svg width="100" height="99" viewBox="0 0 100 99" fill="none" xmlns="http://www.w3.org/2000/svg">
<g clip-path="url(#clip0_358_3392)">
<path fill-rule="evenodd" clip-rule="evenodd" d="M48.223 83.8914C52.7808 84.1627 57.3479 83.5392 61.6614 82.0568C65.975 80.5743 69.95 78.2621 73.3578 75.2533C76.7657 72.2444 79.5391 68.5981 81.5186 64.5243C83.498 60.4504 84.6445 56.0292 84.8921 51.5151C85.3253 44.672 83.6944 37.8559 80.2065 31.9325C76.7187 26.0091 71.5314 21.2457 65.3034 18.2476C59.0755 15.2494 52.088 14.1516 45.2285 15.0937C38.3691 16.0358 31.9473 18.9753 26.7788 23.5387C21.6103 28.1022 17.9283 34.0836 16.2007 40.7233C14.4731 47.363 14.7777 54.3613 17.0758 60.8293C19.374 67.2972 23.562 72.9429 29.1079 77.0492C34.6537 81.1555 41.3072 83.537 48.223 83.8914Z" fill="url(#paint0_radial_358_3392)"/>
<g style="mix-blend-mode:multiply">
<path fill-rule="evenodd" clip-rule="evenodd" d="M58.9455 82.8635C59.8382 82.6329 60.7212 82.3639 61.5848 82.0757C61.2258 77.2721 56.3838 71.2676 56.3838 71.2676C58.9455 74.7358 58.9455 82.6617 58.9455 82.8635Z" fill="#414141"/>
</g>
<g style="mix-blend-mode:multiply">
<path fill-rule="evenodd" clip-rule="evenodd" d="M84.9699 48.6331C79.7883 34.9332 45.2636 27.92 49.0674 14.8926C50.0377 14.8926 50.9401 14.979 51.9202 14.979C60.6706 15.4825 68.9127 19.2148 75.0202 25.4396C81.1277 31.6644 84.657 39.9296 84.9116 48.6043L84.9699 48.6331Z" fill="#414141"/>
</g>
<g style="mix-blend-mode:multiply">
<path fill-rule="evenodd" clip-rule="evenodd" d="M31.1163 78.4155C31.32 78.55 31.5044 78.6941 31.7082 78.819C31.9119 78.9439 32.3098 79.1457 32.6009 79.3186C37.2766 82.0111 42.5235 83.5837 47.9225 83.9108C60.731 72.9586 16.1245 62.4579 15.2027 47.5283C14.9024 53.6039 16.2133 59.6515 19.005 65.0701C21.7968 70.4887 25.9722 75.0896 31.1163 78.4155Z" fill="#414141"/>
</g>
<path fill-rule="evenodd" clip-rule="evenodd" d="M43.5947 27.4973C32.1253 12.1257 41.3047 6.86097 56.112 10.2043C59.547 8.60948 61.051 7.32211 60.6047 6.24611C53.0457 1.846 41.1979 1.73071 36.5888 4.6417C32.9112 6.98586 31.9506 14.3642 33.4352 18.2551C34.6675 21.9059 38.6071 25.5374 43.3812 27.3532L43.5947 27.4973Z" fill="url(#paint1_radial_358_3392)"/>
<path fill-rule="evenodd" clip-rule="evenodd" d="M87.7836 75.3794C88.1136 74.7261 96.2644 56.9336 78.5654 38.2764C89.5497 46.7115 97.2347 59.9406 87.7836 75.3794Z" fill="url(#paint2_radial_358_3392)"/>
<path d="M56.1993 70.9893C68.4061 85.5634 60.362 92.9706 43.2162 88.7626C41.6345 88.3783 38.6071 92.2981 36.647 93.5662C46.0592 96.5733 58.858 96.3427 63.4283 93.4413C67.1059 91.0972 68.0956 85.6307 66.6304 81.7301C65.3107 78.1658 60.6919 74.3038 56.5971 71.2198L56.1993 70.9893Z" fill="url(#paint3_radial_358_3392)"/>
<path fill-rule="evenodd" clip-rule="evenodd" d="M12.3012 23.5966C-8.90064 63.5722 67.2514 74.2939 39.558 92.6341C48.3978 95.4009 68.1927 97.6971 65.7571 83.3631C65.0973 78.8189 61.575 75.1777 56.7427 71.527C45.3994 63.332 26.8272 56.0978 19.2877 42.6381C13.8635 32.9156 13.8538 24.0097 16.4931 16.2375C23.1399 3.62321 39.1699 -0.728863 52.7449 0.097358C91.1023 2.18212 110.218 42.2922 94.4694 72.3148V72.4781L94.2268 72.8816L94.1492 72.9585L94.1201 73.0353L94.1977 73.1218L94.1201 73.1987L94.0328 73.2851C91.7963 77.2784 89.0107 80.9449 85.7558 84.1797C86.8876 81.3612 87.5717 78.3861 87.7838 75.3603C109.073 35.327 32.9112 24.615 60.6046 6.26519C51.1244 3.33499 42.1682 3.55596 37.627 6.47655C33.9592 8.82071 33.3867 13.7588 34.8616 17.6401C39.7812 31.2536 70.5506 37.9402 80.8071 56.3188C86.2118 66.0317 86.2313 74.9376 83.6308 82.7098C80.2963 88.2164 75.3341 92.5761 69.4153 95.1992C62.4488 98.1192 54.8891 99.3859 47.3401 98.898C40.4656 98.599 33.7322 96.8664 27.5805 93.8136C21.4288 90.7607 15.9973 86.4564 11.6414 81.1823C-0.691584 66.3007 -7.76534 38.3437 14.174 14.9405C12.0587 17.1886 12.5438 20.4454 12.3012 23.587V23.5966Z" fill="url(#paint4_radial_358_3392)"/>
<path fill-rule="evenodd" clip-rule="evenodd" d="M60.6049 6.26559C51.1247 3.33539 42.1685 3.55636 37.6273 6.47695C33.9594 8.82111 33.3869 13.7592 34.8619 17.6405C36.2688 21.7716 40.1114 25.1053 43.5949 27.6128C43.5949 27.6128 31.3977 20.8878 33.4258 11.2806C33.8608 9.01532 35.1782 7.01039 37.0936 5.69877C40.7518 3.16246 48.99 3.33539 49.8924 3.42186C53.5929 3.75865 57.2053 4.73408 60.5661 6.30402L60.6049 6.26559Z" fill="url(#paint5_linear_358_3392)"/>
<path fill-rule="evenodd" clip-rule="evenodd" d="M43.5946 27.4971C32.1252 12.1256 41.3046 6.86084 56.1119 10.2041C57.387 8.66164 58.9039 7.33174 60.6046 6.26519C51.1244 3.33499 42.1682 3.55595 37.627 6.47655C33.9591 8.82071 33.3866 13.7588 34.8616 17.6401C36.0939 21.2909 39.2087 24.3652 43.3811 27.3722L43.5946 27.4971Z" fill="url(#paint6_radial_358_3392)"/>
<path fill-rule="evenodd" clip-rule="evenodd" d="M56.3838 71.2676C67.8629 86.6391 58.7805 92.096 43.9731 88.7527C42.724 90.2644 41.2324 91.5627 39.5581 92.5956C48.9704 95.6027 57.8878 95.3721 62.4581 92.4707C66.1357 90.165 66.7761 85.1404 65.3109 81.2975C64.0397 77.6852 60.8861 74.5725 56.7816 71.527L56.3838 71.2676Z" fill="url(#paint7_radial_358_3392)"/>
<path fill-rule="evenodd" clip-rule="evenodd" d="M87.7836 75.3794C88.1136 74.7261 96.2644 56.9336 78.5654 38.2764C88.7249 47.3648 96.5943 58.8742 87.7836 75.3794Z" fill="url(#paint8_radial_358_3392)"/>
<path fill-rule="evenodd" clip-rule="evenodd" d="M12.3013 23.5967C12.0587 24.1731 3.90785 41.9657 21.5195 60.6997C11.2824 51.5152 3.57794 39.9866 12.3013 23.5967Z" fill="url(#paint9_radial_358_3392)"/>
</g>
<defs>
<radialGradient id="paint0_radial_358_3392" cx="0" cy="0" r="1" gradientUnits="userSpaceOnUse" gradientTransform="translate(109.659 33.3138) rotate(44.7147) scale(113.567 113.561)">
<stop stop-color="#00A9FB"/>
<stop offset="0.22" stop-color="#0389F2"/>
<stop offset="0.57" stop-color="#075EE5"/>
<stop offset="0.84" stop-color="#0944DE"/>
<stop offset="1" stop-color="#0A3ADB"/>
</radialGradient>
<radialGradient id="paint1_radial_358_3392" cx="0" cy="0" r="1" gradientUnits="userSpaceOnUse" gradientTransform="translate(57.5063 -8.2272) rotate(44.7147) scale(57.4014 57.3986)">
<stop stop-color="#FFCA07"/>
<stop offset="0.1" stop-color="#FEC409"/>
<stop offset="0.22" stop-color="#FCB40D"/>
<stop offset="0.36" stop-color="#F89914"/>
<stop offset="0.51" stop-color="#F3731E"/>
<stop offset="0.6" stop-color="#F05B24"/>
<stop offset="0.74" stop-color="#DC4225"/>
<stop offset="0.9" stop-color="#C82A26"/>
<stop offset="1" stop-color="#C12126"/>
</radialGradient>
<radialGradient id="paint2_radial_358_3392" cx="0" cy="0" r="1" gradientUnits="userSpaceOnUse" gradientTransform="translate(70.8719 66.4448) rotate(44.7147) scale(28.5511 28.5496)">
<stop stop-color="#FFCA07"/>
<stop offset="0.1" stop-color="#FEC409"/>
<stop offset="0.22" stop-color="#FCB40D"/>
<stop offset="0.36" stop-color="#F89914"/>
<stop offset="0.51" stop-color="#F3731E"/>
<stop offset="0.6" stop-color="#F05B24"/>
<stop offset="0.74" stop-color="#DC4225"/>
<stop offset="0.9" stop-color="#C82A26"/>
<stop offset="1" stop-color="#C12126"/>
</radialGradient>
<radialGradient id="paint3_radial_358_3392" cx="0" cy="0" r="1" gradientUnits="userSpaceOnUse" gradientTransform="translate(51.9686 83.373) scale(13.9826 13.844)">
<stop stop-color="#FEBC11"/>
<stop offset="0.29" stop-color="#FE9916"/>
<stop offset="0.56" stop-color="#FF7F1A"/>
<stop offset="0.72" stop-color="#FF751B"/>
</radialGradient>
<radialGradient id="paint4_radial_358_3392" cx="0" cy="0" r="1" gradientUnits="userSpaceOnUse" gradientTransform="translate(67.494 33.3095) scale(70.6212 69.9213)">
<stop stop-color="#FEBC11"/>
<stop offset="0.29" stop-color="#FE9916"/>
<stop offset="0.56" stop-color="#FF7F1A"/>
<stop offset="0.72" stop-color="#FF751B"/>
</radialGradient>
<linearGradient id="paint5_linear_358_3392" x1="38.5075" y1="4.07579" x2="52.8135" y2="18.525" gradientUnits="userSpaceOnUse">
<stop stop-color="white"/>
<stop offset="0.12" stop-color="#FFF8F1"/>
<stop offset="0.36" stop-color="#FFE5CB"/>
<stop offset="0.68" stop-color="#FFC78F"/>
<stop offset="1" stop-color="#FFA64C"/>
</linearGradient>
<radialGradient id="paint6_radial_358_3392" cx="0" cy="0" r="1" gradientUnits="userSpaceOnUse" gradientTransform="translate(58.2952 -6.97057) rotate(44.7147) scale(54.6014 54.5987)">
<stop stop-color="#FFCA07"/>
<stop offset="0.1" stop-color="#FEC409"/>
<stop offset="0.22" stop-color="#FCB40D"/>
<stop offset="0.36" stop-color="#F89914"/>
<stop offset="0.51" stop-color="#F3731E"/>
<stop offset="0.6" stop-color="#F05B24"/>
<stop offset="0.74" stop-color="#DC4225"/>
<stop offset="0.9" stop-color="#C82A26"/>
<stop offset="1" stop-color="#C12126"/>
</radialGradient>
<radialGradient id="paint7_radial_358_3392" cx="0" cy="0" r="1" gradientUnits="userSpaceOnUse" gradientTransform="translate(29.3131 109.63) rotate(44.7147) scale(60.1436 60.1406)">
<stop stop-color="#FFCA07"/>
<stop offset="0.1" stop-color="#FEC409"/>
<stop offset="0.22" stop-color="#FCB40D"/>
<stop offset="0.36" stop-color="#F89914"/>
<stop offset="0.51" stop-color="#F3731E"/>
<stop offset="0.6" stop-color="#F05B24"/>
<stop offset="0.74" stop-color="#DC4225"/>
<stop offset="0.9" stop-color="#C82A26"/>
<stop offset="1" stop-color="#C12126"/>
</radialGradient>
<radialGradient id="paint8_radial_358_3392" cx="0" cy="0" r="1" gradientUnits="userSpaceOnUse" gradientTransform="translate(70.9268 66.3905) rotate(44.7147) scale(28.5221 28.5207)">
<stop stop-color="#FFCA07"/>
<stop offset="0.1" stop-color="#FEC409"/>
<stop offset="0.22" stop-color="#FCB40D"/>
<stop offset="0.36" stop-color="#F89914"/>
<stop offset="0.51" stop-color="#F3731E"/>
<stop offset="0.6" stop-color="#F05B24"/>
<stop offset="0.74" stop-color="#DC4225"/>
<stop offset="0.9" stop-color="#C82A26"/>
<stop offset="1" stop-color="#C12126"/>
</radialGradient>
<radialGradient id="paint9_radial_358_3392" cx="0" cy="0" r="1" gradientUnits="userSpaceOnUse" gradientTransform="translate(51.8457 27.3766) rotate(44.7147) scale(49.4164 49.414)">
<stop stop-color="#FFCA07"/>
<stop offset="0.1" stop-color="#FEC409"/>
<stop offset="0.22" stop-color="#FCB40D"/>
<stop offset="0.36" stop-color="#F89914"/>
<stop offset="0.51" stop-color="#F3731E"/>
<stop offset="0.6" stop-color="#F05B24"/>
<stop offset="0.74" stop-color="#DC4225"/>
<stop offset="0.9" stop-color="#C82A26"/>
<stop offset="1" stop-color="#C12126"/>
</radialGradient>
<clipPath id="clip0_358_3392">
<rect width="100" height="99" fill="white"/>
</clipPath>
</defs>
</svg>
