<svg width="100" height="63" viewBox="0 0 100 63" fill="none" xmlns="http://www.w3.org/2000/svg">
<rect width="100" height="62.3853" rx="3.66972" fill="url(#paint0_radial_520_851)"/>
<g clip-path="url(#clip0_520_851)">
<path d="M44.6666 44.0188H38.186L42.2394 18.4629H48.7196L44.6666 44.0188Z" fill="#00579F"/>
<path d="M68.1591 19.088C66.8809 18.5709 64.8535 18 62.3466 18C55.9468 18 51.4402 21.4798 51.4125 26.4548C51.3594 30.1254 54.6392 32.1641 57.0922 33.388C59.5994 34.6386 60.4517 35.4549 60.4517 36.5696C60.4262 38.2817 58.4257 39.0709 56.5599 39.0709C53.9726 39.0709 52.5862 38.664 50.4794 37.7115L49.6261 37.3032L48.7192 43.0399C50.2392 43.746 53.0395 44.3725 55.9468 44.4C62.7467 44.4 67.1736 40.9741 67.2261 35.6724C67.2519 32.7632 65.5201 30.534 61.7863 28.7125C59.5197 27.5432 58.1316 26.7547 58.1316 25.5583C58.1582 24.4706 59.3057 23.3566 61.8643 23.3566C63.9711 23.302 65.519 23.8184 66.6917 24.3351L67.2778 24.6065L68.1591 19.088Z" fill="#00579F"/>
<path d="M76.7726 34.9652C77.3063 33.4971 79.3599 27.8149 79.3599 27.8149C79.333 27.8695 79.8926 26.3197 80.2126 25.3682L80.6655 27.5703C80.6655 27.5703 81.8927 33.6875 82.1592 34.9652C81.1464 34.9652 78.0526 34.9652 76.7726 34.9652ZM84.772 18.4629H79.7593C78.2135 18.4629 77.0391 18.9247 76.3721 20.5833L66.7461 44.0184H73.5459C73.5459 44.0184 74.6654 40.8642 74.9061 40.1849C75.652 40.1849 82.2669 40.1849 83.2266 40.1849C83.4126 41.0821 83.9998 44.0184 83.9998 44.0184H90.0002L84.772 18.4629Z" fill="#00579F"/>
<path d="M32.7734 18.4629L26.4268 35.8896L25.7332 32.3552C24.5599 28.2771 20.88 23.8462 16.7734 21.6431L22.5867 43.9917H29.4397L39.626 18.4629H32.7734Z" fill="#00579F"/>
<path d="M20.5333 18.4629H10.1067L10 18.9793C18.1334 21.1 23.52 26.212 25.7331 32.3563L23.4665 20.6111C23.0933 18.9789 21.9465 18.5167 20.5333 18.4629Z" fill="#FAA61A"/>
</g>
<defs>
<radialGradient id="paint0_radial_520_851" cx="0" cy="0" r="1" gradientUnits="userSpaceOnUse" gradientTransform="rotate(31.3231) scale(117.062 127.698)">
<stop stop-color="#9CC2FC"/>
<stop offset="0.588023" stop-color="white"/>
<stop offset="1" stop-color="#FFDAC2"/>
</radialGradient>
<clipPath id="clip0_520_851">
<rect width="80" height="26.4" fill="white" transform="translate(10 18)"/>
</clipPath>
</defs>
</svg>
